<?xml version="1.0" encoding="UTF-8"?>
<!-- Generated by Pixelmator Pro 3.7.1 -->
<svg width="716" height="716" viewBox="0 0 716 716" xmlns="http://www.w3.org/2000/svg">
    <path id="Rectangle-copy-2" fill="#2c68bd" fill-rule="evenodd" stroke="none" d="M 5 358 C 5 437.968933 5 477.953369 13.498026 510.826111 C 37.794571 604.81189 111.188095 678.205444 205.173889 702.501953 C 238.046616 711 278.031067 711 358 711 C 437.968933 711 477.9534 711 510.826111 702.501953 C 604.81189 678.205444 678.205444 604.81189 702.501953 510.826111 C 711 477.953369 711 437.968933 711 358 C 711 278.031067 711 238.0466 702.501953 205.173889 C 678.205383 111.18811 604.81189 37.794556 510.82608 13.498047 C 477.953369 5 437.968903 5 357.999969 5 C 278.031036 5 238.046585 5 205.173859 13.498047 C 111.188072 37.794617 37.794544 111.18811 13.498 205.17392 C 4.999974 238.046631 4.999974 278.031097 4.999974 358.000031 Z"/>
    <path id="S" fill="#ffffff" fill-rule="evenodd" stroke="none" d="M 350.225586 457.498047 C 357.992249 456.085938 361.875488 452.143829 361.875488 445.671631 C 361.875488 439.199402 359.816162 431.903625 355.69751 423.783936 C 351.578857 415.664246 345.518616 407.956604 337.516602 400.660645 C 316.57019 381.832397 288.210632 372.418457 252.437012 372.418457 C 234.785553 372.418457 218.311111 375.360352 203.013184 381.244141 C 186.773849 373.006775 173.829636 359.944885 164.180176 342.058105 C 154.530716 324.171326 149.706055 304.872681 149.706055 284.161621 C 149.706055 230.030518 172.299576 188.255981 217.487305 158.836914 C 256.320496 133.654175 304.21405 121.062988 361.169434 121.062988 C 403.532928 121.062988 439.188324 125.593445 468.136719 134.654541 C 497.085114 143.715637 520.737671 155.30658 539.095215 169.427734 C 544.508301 184.960999 547.214844 201.082458 547.214844 217.79248 C 547.214844 234.502502 544.979004 249.682556 540.507324 263.333008 C 536.035645 276.983459 529.563477 287.927185 521.09082 296.164551 C 513.088867 290.280762 498.614838 284.279358 477.668457 278.160156 C 456.722076 272.040955 437.658783 268.981445 420.478027 268.981445 C 403.297272 268.981445 391.824005 270.040527 386.057861 272.158691 C 380.291718 274.276855 377.408691 277.571777 377.408691 282.043457 C 377.408691 284.161621 377.761719 286.162109 378.467773 288.044922 C 386.705139 285.926758 397.295837 284.867676 410.240234 284.867676 C 456.134033 284.867676 493.554535 295.693726 522.50293 317.346191 C 556.629089 343.234985 573.691895 382.067627 573.691895 433.845215 C 573.691895 479.503632 555.21698 517.394897 518.266602 547.52002 C 478.256622 579.763306 424.47934 595.884766 356.933105 595.884766 C 319.747375 595.884766 287.504517 593.119385 260.203613 587.588623 C 232.902695 582.057861 206.308228 572.34967 180.419434 558.463867 C 162.767975 532.810425 153.942383 506.745483 153.942383 480.268311 C 153.942383 453.791138 163.003326 431.844788 181.125488 414.428711 C 199.24765 397.012634 221.546997 388.304688 248.02417 388.304688 C 274.501343 388.304688 296.153473 393.717712 312.981201 404.543945 C 329.808929 415.370178 342.223572 433.021362 350.225586 457.498047 Z"/>
</svg>
